<svg width="24" height="24" viewBox="0 0 24 24" fill="none" xmlns="http://www.w3.org/2000/svg">
<path d="M20 6H16.82C17.235 5.44 17.235 4.66 16.82 4.1C16.405 3.54 15.695 3.26 15 3.5C14.18 3.78 13.37 4.69 12 6C10.63 4.69 9.82 3.78 9 3.5C8.305 3.26 7.595 3.54 7.18 4.1C6.765 4.66 6.765 5.44 7.18 6H4C2.9 6 2 6.9 2 8V10C2 11.1 2.9 12 4 12H20C21.1 12 22 11.1 22 10V8C22 6.9 21.1 6 20 6Z" fill="currentColor"/>
<path d="M4 14V20C4 21.1 4.9 22 6 22H18C19.1 22 20 21.1 20 20V14H4Z" fill="currentColor"/>
</svg>